<svg width="20" height="20" viewBox="0 0 20 20" fill="none" xmlns="http://www.w3.org/2000/svg">
<g clip-path="url(#clip0_2_117)">
<path d="M10 20C15.5228 20 20 15.5228 20 10C20 4.47715 15.5228 0 10 0C4.47715 0 0 4.47715 0 10C0 15.5228 4.47715 20 10 20Z" fill="#F0F0F0"/>
<path d="M5.65234 13.4774L6.52191 19.3773C7.6052 19.7793 8.77695 19.9992 10.0002 19.9992C14.2998 19.9992 17.9652 17.2854 19.3781 13.4774H5.65234Z" fill="black"/>
<path d="M5.65234 6.52219L6.52191 0.622341C7.6052 0.220349 8.77695 0.000427246 10.0002 0.000427246C14.2998 0.000427246 17.9652 2.71418 19.3781 6.52219H5.65234Z" fill="#6DA544"/>
<path d="M0.000488281 10C0.000488281 14.2997 2.71428 17.9651 6.52225 19.378V0.622009C2.71428 2.03494 0.000488281 5.70037 0.000488281 10Z" fill="#A2001D"/>
</g>
<defs>
<clipPath id="clip0_2_117">
<rect width="20" height="20" fill="white"/>
</clipPath>
</defs>
</svg>
