<svg width="24" height="24" viewBox="0 0 24 24" fill="none" xmlns="http://www.w3.org/2000/svg">
<g clip-path="url(#clip0_1_7416)">
<path d="M12 24C18.6274 24 24 18.6274 24 12C24 5.37258 18.6274 0 12 0C5.37258 0 0 5.37258 0 12C0 18.6274 5.37258 24 12 24Z" fill="#F0F0F0"/>
<path d="M12.0002 -0.00012207C7.24267 -0.00012207 3.13192 2.76855 1.19092 6.7825H22.8094C20.8685 2.76855 16.7577 -0.00012207 12.0002 -0.00012207V-0.00012207Z" fill="#338AF3"/>
<path d="M12.0002 23.9998C16.7577 23.9998 20.8685 21.2311 22.8095 17.2172H1.19092C3.13192 21.2311 7.24267 23.9998 12.0002 23.9998Z" fill="#338AF3"/>
<path d="M15.5869 11.9999L14.1213 12.6893L14.9017 14.1086L13.3103 13.8042L13.1087 15.4118L12.0002 14.2294L10.8917 15.4118L10.6901 13.8042L9.0987 14.1086L9.87907 12.6892L8.41357 11.9999L9.87912 11.3105L9.0987 9.89123L10.6901 10.1956L10.8918 8.58801L12.0002 9.77039L13.1087 8.58801L13.3103 10.1956L14.9018 9.89123L14.1214 11.3106L15.5869 11.9999Z" fill="#FFDA44"/>
</g>
<defs>
<clipPath id="clip0_1_7416">
<rect width="24" height="24" fill="white"/>
</clipPath>
</defs>
</svg>
