<svg width="24" height="24" viewBox="0 0 24 24" fill="none" xmlns="http://www.w3.org/2000/svg">
<g clip-path="url(#clip0_1_7452)">
<path d="M12 24C18.6274 24 24 18.6274 24 12C24 5.37258 18.6274 0 12 0C5.37258 0 0 5.37258 0 12C0 18.6274 5.37258 24 12 24Z" fill="#D80027"/>
<path d="M6.56719 7.30292L7.60312 10.4904H10.9547L8.24531 12.4639L9.28125 15.6514L6.56719 13.6826L3.85313 15.6514L4.89375 12.4639L2.17969 10.4904H5.53125L6.56719 7.30292Z" fill="#FFDA44"/>
<path d="M14.2265 18.5858L13.4343 17.6108L12.2624 18.0655L12.9421 17.0108L12.1499 16.0311L13.364 16.3546L14.0483 15.2999L14.114 16.5561L15.3327 16.8796L14.1562 17.3296L14.2265 18.5858Z" fill="#FFDA44"/>
<path d="M15.8015 15.7265L16.1765 14.5265L15.1499 13.7999L16.4062 13.7812L16.7765 12.5812L17.1843 13.7718L18.4405 13.7577L17.4327 14.5077L17.8358 15.6984L16.8093 14.9718L15.8015 15.7265Z" fill="#FFDA44"/>
<path d="M17.9251 8.80765L17.372 9.93734L18.272 10.8139L17.0298 10.6358L16.4767 11.7608L16.261 10.5233L15.0142 10.3452L16.1298 9.75922L15.9142 8.51703L16.8142 9.39359L17.9251 8.80765Z" fill="#FFDA44"/>
<path d="M14.2592 5.3858L14.1654 6.63737L15.3326 7.1108L14.1092 7.4108L14.0201 8.66705L13.3592 7.5983L12.1357 7.8983L12.9467 6.93737L12.2811 5.8733L13.4482 6.34674L14.2592 5.3858Z" fill="#FFDA44"/>
</g>
<defs>
<clipPath id="clip0_1_7452">
<rect width="24" height="24" fill="white"/>
</clipPath>
</defs>
</svg>
